<?xml version="1.0" encoding="UTF-8"?>
<svg id="Camada_1" data-name="Camada 1" xmlns="http://www.w3.org/2000/svg" viewBox="0 0 1126.67 798.95">
  <defs>
    <style>
      .cls-1 {
        fill: #f0e9db;
      }
    </style>
  </defs>
  <g>
    <path class="cls-1" d="M261.69,438.43c-2.22,9.98-12.58,50.05-16.32,61.34H57.91v-11.22c35.3-2.8,37.9-5.96,37.9-37.34v-149.63c0-33.64-4.26-35.61-32.36-38.21v-11.29c27.67-.2,157.06.58,173.78-.76.38,9.05,1.97,38.11,3.5,58.92l-12.05,1.91c-14.82-55.74-32.73-42.87-83.03-44.41-12.29,0-13.19,1.07-13.19,12.47v83.39h41.4c27.28,0,29.53-5.72,34.3-31.83h12.36v79.66h-12.36c-5.16-27.57-8.21-31.52-34.68-31.52h-41.02v73.98c0,26.61,7.01,29.92,26.89,30.3,58.69.51,64.69,5.48,90.43-48.88l11.91,3.12ZM141.68,221.29l63.67-59.26c8.07,2.32,24.14,15.68,28.36,21.95l-.38,3.12-83.89,44.07-7.76-9.87Z"/>
    <path class="cls-1" d="M523.17,263.37c-25.46,3.29-32.15,6.72-46,41.36-10.56,25.91-60.75,147.59-81.14,199.23h-14.08c-20.36-55.66-56.14-152.3-76.84-205.82-10.88-28.27-17.08-32.49-40.6-34.78v-11.29h100.29l-.07,11.29c-28.13,3.19-29.38,7.42-23.91,21.86,9.94,28.57,37.89,104.88,59.91,162.79,20.68-50.12,45-110.38,61.27-154.21,8.59-22.86,4.36-26.7-27.02-30.44v-11.29h88.19v11.29Z"/>
    <path class="cls-1" d="M660.63,246.75c166.9-.63,161.74,262.14-2.22,258.74-165.65,3.73-169.91-260.22,2.22-258.74ZM653.35,261.33c-111.36-4.47-99.54,236.15,11.1,229.27,114.35,4.24,95.21-239.73-11.1-229.27Z"/>
    <path class="cls-1" d="M1049.74,502.68c-70.16,4.44-84.41-48.28-115.54-96.34-7.22-15.94-24.82-14.31-42.74-14.2v59.07c0,32.12,4.12,34.16,34.27,37.28v11.29h-104.42v-11.29c31.15-3.36,33.95-5.16,33.95-37.28v-150.94c0-31.98-4.12-33.67-33.95-36.89v-11.29c37.49,2.64,133.58-8.6,161.98,13.23,45.35,28.7,26.36,100.59-23.04,115.23,20.44,30.45,55.3,101.53,91.23,111.06l-1.73,11.08ZM908.31,378.7c39.22,1.27,61.4-19.95,61.5-57.3,1.44-48.39-43-64.01-73.99-51.69-9.31,5.83-2.31,98.44-4.37,108.99h16.85Z"/>
  </g>
  <g>
    <path class="cls-1" d="M626.33,276.97c-.03-.07-.04-.15-.06-.23.02.08.04.15.06.23Z"/>
    <path class="cls-1" d="M716.91,408.19v.85c2.73,2.21,4.12,4.56,3.56,8.19-.6,3.89-5.5,3.3-6.43,7.8-1.08,5.28,3.76,10.04,1.36,17.16-4.99,14.81-31.56,7.33-42.71,4.27-1.97-.54-10.57-3.99-11.52-3.41-11.26,15.66-21.51,31.92-27.88,50.16l-1.47-.91c4.63-19.04,16.11-34.45,26.88-50.42-24.75-10-45.53-33.14-42.81-60.7,2.23-3.43,2.05,4.38,2.12,5,3.08,26.51,17.18,43.58,42.54,53.08,6.87-14.4,7.45-29.38-2.14-42.76-8.43-11.77-26.9-17.85-31.93-30.92-5.3-13.75,5.7-25.78,20.03-25.46,20.69,6.06,25.36-11.73,41.02-7.6.28-4.74.48-5.74-4.03-7.49-11.78-4.99-22.26,3.47-33.12,5.73-1.43-1.35,5.58-6.48,6.66-7.26,20.99-18.4,58.25-.37,33.19,7.84-3.24,6.67.07,15.15,7.21,7.63l1.42,1.38c-2.06,4.93-6.84,6.21-11.63,7.41l-2.14,6.09c.1.6,4.9,2.04,2.14,3.89-8.96-3.99-18.89-6.48-26.66-12.62-.5-2.28,6.58-1.31,8.08-1.47,5.92-.6,12.41-2.76,18.28-1.17-2.04-7.29.33-10.97-8.97-7.32-5.95,2.34-11.09,7.43-17.85,8.34-10.35,1.39-20.63-5.13-28.91,5.72-20.76,31.48,59.02,33.92,31.72,90.84,9.36,3.96,39.12,14.15,48.27,4.44,6.28-7.56-3.42-16.48,2.12-24.02-4.06-1.07-12.95-4.89-15.57-7.93-2.49-2.89,4.69-5.62,6.87-7.33,3.85-3.72,7.95-7.18,12.89-9.08-5.02-4.72-2.46-10.15.61-14.95-4.54.84-7.12,8.64-12.53,5.52-6.26-3.61-.87-13.34,1.14-11.38-.67,3.48-2.66,5.79-.52,9.3,3.59,2.29,8.87-8.34,13.72-5.51,1.43.83.05,3.27,1.48,2.64,3.19-1.4,5.64-4.98,5.07-8.46-.47-2.85-7.56-8.3-9.86-10.88-14.51-14.88-15.02-24.12-14.05-43.72.74-12.36-27.26-73.54-41.67-48.93-3.88,10.25-4.97,21.74-9.62,32.81-23.78,47.58-89.87,94.23-44.03,150.43l-1.81.61c-48.94-58.44,24.29-107.27,46.18-159.51,4.59-13.56,5.89-44.21,26.04-29.03,12.17,9.29,26.18,37.49,27.31,52.45-.98,20.34-.28,28.96,14.65,44.31,4.93,5.62,13.95,9.72,7.76,18.13-2.31,3.14-9.5,5.92-10.2,8.23-1.43,4.68,5.18,7.41,5.2,12.03.02,3.24-2.29,6.97-5.44,7.93ZM662.97,323.14c8.63-2.07,24.95-4.89,27.87,6.44,5.45-3.01,7.46-6.24.51-9.29-8.71-4.2-20.84-3.04-28.38,2.84ZM679.12,347.81l-10.15-.61,9.88,4.7c1.97.29-.06-3.04.27-4.08ZM704.33,408.76c4.59-1.58,11.96-.86,14.5-5.45,2.74-4.96-.34-5.42-4.27-3.01l-10.22,8.46ZM702.53,412.29c2.56,3.54,19.53,10.73,14.84,1.01-2.65-5.5-10.31-1.5-14.84-1.01Z"/>
  </g>
</svg>